<?xml version="1.0" encoding="UTF-8" standalone="no"?>
<svg
   xmlns:dc="http://purl.org/dc/elements/1.1/"
   xmlns:cc="http://creativecommons.org/ns#"
   xmlns:rdf="http://www.w3.org/1999/02/22-rdf-syntax-ns#"
   xmlns:svg="http://www.w3.org/2000/svg"
   xmlns="http://www.w3.org/2000/svg"
   xmlns:sodipodi="http://sodipodi.sourceforge.net/DTD/sodipodi-0.dtd"
   xmlns:inkscape="http://www.inkscape.org/namespaces/inkscape"
   width="127.32539mm"
   height="14.924591mm"
   viewBox="0 0 127.32539 14.924591"
   version="1.1"
   id="svg2620"
   sodipodi:docname="logos.svg"
   inkscape:version="1.0.1 (c497b03c, 2020-09-10)">
  <defs
     id="defs2614" />
  <sodipodi:namedview
     id="base"
     pagecolor="#ffffff"
     bordercolor="#666666"
     borderopacity="1.0"
     inkscape:pageopacity="0.0"
     inkscape:pageshadow="2"
     inkscape:zoom="3.4037788"
     inkscape:cx="241.7398"
     inkscape:cy="10.015942"
     inkscape:document-units="mm"
     inkscape:current-layer="layer1"
     inkscape:document-rotation="0"
     showgrid="false"
     inkscape:window-width="2479"
     inkscape:window-height="909"
     inkscape:window-x="33"
     inkscape:window-y="304"
     inkscape:window-maximized="0" />
  <metadata
     id="metadata2617">
    <rdf:RDF>
      <cc:Work
         rdf:about="">
        <dc:format>image/svg+xml</dc:format>
        <dc:type
           rdf:resource="http://purl.org/dc/dcmitype/StillImage" />
      </cc:Work>
    </rdf:RDF>
  </metadata>
  <g
     inkscape:label="Layer 1"
     inkscape:groupmode="layer"
     id="layer1"
     transform="translate(-31.403822,-94.677864)">
    <rect
       style="fill:#ffffff;fill-opacity:1;stroke:none;stroke-width:0.4;stroke-miterlimit:0.1"
       id="rect3258"
       width="127.32539"
       height="14.924591"
       x="31.403822"
       y="94.677864" />
    <path
       d="m 52.115443,101.04921 h -1.833827 l 0.643996,-3.175001 H 35.409387 l -1.638829,8.202081 h 6.185694 l 0.420687,-2.11666 h -3.655218 l 0.20902,-1.05834 h 3.6576 l 0.371211,-1.85208 h -3.649133 l 0.208491,-1.058335 h 5.808134 l -1.215761,6.085415 h 2.522273 l 1.215231,-6.085415 h 2.117461 l -1.215232,6.085415 h 2.541588 l 0.628914,-3.175 h 1.833298 l -0.628385,3.175 h 2.529417 l 1.639887,-8.202081 h -2.536296 z m 10.821988,-2.116668 h 0.843756 l 0.209021,-1.058333 h -0.839787 z m 2.164027,0 h 0.844285 l 0.208492,-1.058333 h -0.839787 z m 7.891992,0 h 0.843756 l 0.20955,-1.058333 h -0.840317 z m 4.223543,1.563158 c -1.472406,0 -2.505604,1.04246 -2.836333,2.86068 a 4.8569562,4.8569562 0 0 0 -0.07937,0.86254 c 0,1.24195 0.749565,2.01401 1.958181,2.01401 a 2.5698979,2.5698979 0 0 0 1.85446,-0.7837 l 0.0074,-0.008 -0.468048,-0.57362 -0.0085,-0.0101 -0.009,0.01 a 1.7073562,1.7073562 0 0 1 -1.331913,0.64188 c -0.575998,0 -1.191683,-0.34555 -1.191683,-1.31286 a 4.270375,4.270375 0 0 1 0.0889,-0.83503 3.2218312,3.2218312 0 0 1 0.71755,-1.6002 1.6480896,1.6480896 0 0 1 1.2192,-0.54028 1.1660187,1.1660187 0 0 1 1.081881,0.61701 l 0.0069,0.0111 0.595842,-0.50588 0.0085,-0.007 -0.0064,-0.009 a 1.8076333,1.8076333 0 0 0 -1.607567,-0.83079 z m 5.38533,-0.1188 a 2.07645,2.07645 0 0 0 -1.597555,0.63289 l 0.632884,-3.135581 h -0.815975 l -1.639359,8.202081 h 0.815975 l 0.680509,-3.44567 c 0.291571,-1.45203 1.418166,-1.52558 1.640416,-1.52558 a 0.90752083,0.90752083 0 0 1 0.996421,0.97816 3.0440312,3.0440312 0 0 1 -0.05715,0.5207 l -0.69215,3.47239 h 0.814917 l 0.715962,-3.5478 a 2.9331708,2.9331708 0 0 0 0.05715,-0.55959 1.4893396,1.4893396 0 0 0 -1.552045,-1.592 z m -11.000582,5.6859 -0.0026,0.0138 h 0.804597 l 1.098021,-5.55625 h -0.791104 z m -14.756341,-4.76382 -0.0024,0.0151 h 2.731029 l -3.600715,4.09178 -0.0016,0.002 -0.135202,0.6686 h 3.877997 l 0.152665,-0.79375 h -2.89904 l 3.611298,-4.09178 0.0016,-0.003 0.135731,-0.66807 h -3.720551 z m 13.416756,-0.84641 a 1.8862146,1.8862146 0 0 0 -1.520031,0.70432 l 0.124883,-0.62415 0.0021,-0.0124 h -0.79375 l -1.097227,5.54249 -0.0021,0.0138 h 0.805656 l 0.670984,-3.3999 c 0.171714,-0.8718 0.8382,-1.50495 1.585912,-1.50495 a 0.9191625,0.9191625 0 0 1 0.772319,0.38788 l 0.0079,0.0101 0.653257,-0.58843 -0.0063,-0.008 a 1.495425,1.495425 0 0 0 -1.20359,-0.5207 z m -4.860131,0.0677 H 66.218 l -0.0021,0.0132 -1.096433,5.54302 h -0.794015 l 0.0026,-0.0138 0.10504,-0.57679 a 2.0552833,2.0552833 0 0 1 -1.600994,0.65722 1.4673792,1.4673792 0 0 1 -1.529292,-1.57083 2.5251833,2.5251833 0 0 1 0.05741,-0.50244 l 0.0093,-0.0503 0.693738,-3.49938 h 0.805127 l -0.0026,0.0132 -0.681831,3.41259 a 3.114675,3.114675 0 0 0 -0.05477,0.51329 0.9001125,0.9001125 0 0 0 0.992981,0.9652 c 0.218281,0 1.320006,-0.073 1.607608,-1.50627 z"
       fill="#fff"
       id="path4"
       style="fill:#00000f;fill-opacity:0.941176;stroke-width:0.264583" />
    <g
       id="g3218"
       transform="matrix(0.18019944,0,0,0.18019944,94.448,95.651)">
      <path
         class="st0"
         d="m 140.4,14.4 v 43.2 h -7.5 V 23.7 h -0.1 l -13.4,33.9 h -5 L 100.7,23.7 h -0.1 V 57.6 H 93.7 V 14.4 h 10.8 l 12.4,32 h 0.2 l 13.1,-32 z m 6.2,3.3 c 0,-1.2 0.4,-2.2 1.3,-3 0.9,-0.8 1.9,-1.2 3.1,-1.2 1.3,0 2.4,0.4 3.2,1.2 0.8,0.8 1.3,1.8 1.3,3 0,1.2 -0.4,2.2 -1.3,3 -0.9,0.8 -1.9,1.2 -3.2,1.2 -1.3,0 -2.3,-0.4 -3.1,-1.2 -0.8,-0.9 -1.3,-1.9 -1.3,-3 z m 8.1,8.9 v 31 h -7.3 v -31 z m 22.1,25.7 c 1.1,0 2.3,-0.2 3.6,-0.8 1.3,-0.5 2.5,-1.2 3.6,-2 v 6.8 c -1.2,0.7 -2.5,1.2 -4,1.5 -1.5,0.3 -3.1,0.5 -4.9,0.5 -4.6,0 -8.3,-1.4 -11.1,-4.3 -2.9,-2.9 -4.3,-6.6 -4.3,-11 0,-5 1.5,-9.1 4.4,-12.3 2.9,-3.2 7,-4.8 12.4,-4.8 1.4,0 2.8,0.2 4.1,0.5 1.4,0.3 2.5,0.8 3.3,1.2 v 7 c -1.1,-0.8 -2.3,-1.5 -3.4,-1.9 -1.2,-0.4 -2.4,-0.7 -3.6,-0.7 -2.9,0 -5.2,0.9 -7,2.8 -1.8,1.9 -2.6,4.4 -2.6,7.6 0,3.1 0.9,5.6 2.6,7.3 1.7,1.7 4,2.6 6.9,2.6 z m 27.9,-26.2 c 0.6,0 1.1,0 1.6,0.1 0.5,0.1 0.9,0.2 1.2,0.3 v 7.4 c -0.4,-0.3 -0.9,-0.6 -1.7,-0.8 -0.8,-0.2 -1.6,-0.4 -2.7,-0.4 -1.8,0 -3.3,0.8 -4.5,2.3 -1.2,1.5 -1.9,3.8 -1.9,7 v 15.6 h -7.3 v -31 h 7.3 v 4.9 h 0.1 c 0.7,-1.7 1.7,-3 3,-4 1.4,-0.9 3,-1.4 4.9,-1.4 z m 3.2,16.5 c 0,-5.1 1.5,-9.2 4.3,-12.2 2.9,-3 6.9,-4.5 12,-4.5 4.8,0 8.6,1.4 11.3,4.3 2.7,2.9 4.1,6.8 4.1,11.7 0,5 -1.5,9 -4.3,12 -2.9,3 -6.8,4.5 -11.8,4.5 -4.8,0 -8.6,-1.4 -11.4,-4.2 -2.8,-2.9 -4.2,-6.8 -4.2,-11.6 z m 7.6,-0.3 c 0,3.2 0.7,5.7 2.2,7.4 1.5,1.7 3.6,2.6 6.3,2.6 2.6,0 4.7,-0.8 6.1,-2.6 1.4,-1.7 2.1,-4.2 2.1,-7.6 0,-3.3 -0.7,-5.8 -2.1,-7.6 -1.4,-1.7 -3.5,-2.6 -6,-2.6 -2.7,0 -4.7,0.9 -6.2,2.7 -1.7,1.9 -2.4,4.4 -2.4,7.7 z m 35,-7.5 c 0,1 0.3,1.9 1,2.5 0.7,0.6 2.1,1.3 4.4,2.2 2.9,1.2 5,2.5 6.1,3.9 1.2,1.5 1.8,3.2 1.8,5.3 0,2.9 -1.1,5.2 -3.4,7 -2.2,1.8 -5.3,2.6 -9.1,2.6 -1.3,0 -2.7,-0.2 -4.3,-0.5 -1.6,-0.3 -2.9,-0.7 -4,-1.2 v -7.2 c 1.3,0.9 2.8,1.7 4.3,2.2 1.5,0.5 2.9,0.8 4.2,0.8 1.6,0 2.9,-0.2 3.6,-0.7 0.8,-0.5 1.2,-1.2 1.2,-2.3 0,-1 -0.4,-1.8 -1.2,-2.6 -0.8,-0.7 -2.4,-1.5 -4.6,-2.4 -2.7,-1.1 -4.6,-2.4 -5.7,-3.8 -1.1,-1.4 -1.7,-3.2 -1.7,-5.4 0,-2.8 1.1,-5.1 3.3,-6.9 2.2,-1.8 5.1,-2.7 8.6,-2.7 1.1,0 2.3,0.1 3.6,0.4 1.3,0.3 2.5,0.6 3.4,0.9 V 34 c -1,-0.6 -2.1,-1.2 -3.4,-1.7 -1.3,-0.5 -2.6,-0.7 -3.8,-0.7 -1.4,0 -2.5,0.3 -3.2,0.8 -0.7,0.7 -1.1,1.4 -1.1,2.4 z m 16.4,7.8 c 0,-5.1 1.5,-9.2 4.3,-12.2 2.9,-3 6.9,-4.5 12,-4.5 4.8,0 8.6,1.4 11.3,4.3 2.7,2.9 4.1,6.8 4.1,11.7 0,5 -1.5,9 -4.3,12 -2.9,3 -6.8,4.5 -11.8,4.5 -4.8,0 -8.6,-1.4 -11.4,-4.2 -2.7,-2.9 -4.2,-6.8 -4.2,-11.6 z m 7.6,-0.3 c 0,3.2 0.7,5.7 2.2,7.4 1.5,1.7 3.6,2.6 6.3,2.6 2.6,0 4.7,-0.8 6.1,-2.6 1.4,-1.7 2.1,-4.2 2.1,-7.6 0,-3.3 -0.7,-5.8 -2.1,-7.6 -1.4,-1.7 -3.5,-2.6 -6,-2.6 -2.7,0 -4.7,0.9 -6.2,2.7 -1.6,1.9 -2.4,4.4 -2.4,7.7 z m 48.4,-9.7 H 312 v 25 h -7.4 v -25 h -5.2 v -6 h 5.2 v -4.3 c 0,-3.2 1.1,-5.9 3.2,-8 2.1,-2.1 4.8,-3.1 8.1,-3.1 0.9,0 1.7,0.1 2.4,0.1 0.7,0 1.3,0.2 1.8,0.4 V 18 c -0.2,-0.1 -0.7,-0.3 -1.3,-0.5 -0.6,-0.2 -1.3,-0.3 -2.1,-0.3 -1.5,0 -2.7,0.5 -3.5,1.4 -0.8,0.9 -1.2,2.4 -1.2,4.2 v 3.7 h 10.9 v -7 l 7.3,-2.2 v 9.2 h 7.4 v 6 h -7.4 V 47 c 0,1.9 0.4,3.2 1,4 0.7,0.8 1.8,1.2 3.3,1.2 0.4,0 0.9,-0.1 1.5,-0.3 0.6,-0.2 1.1,-0.4 1.5,-0.7 v 6 c -0.5,0.3 -1.2,0.5 -2.3,0.7 -1.1,0.2 -2.1,0.3 -3.2,0.3 -3.1,0 -5.4,-0.8 -6.9,-2.4 -1.5,-1.6 -2.3,-4.1 -2.3,-7.4 z"
         id="path3192" />
      <g
         id="g3202">
	<path
   id="rect3194"
   style="fill:#f25022"
   d="M 0,0 H 34.200001 V 34.200001 H 0 Z"
   class="st1" />

	<path
   id="rect3196"
   style="fill:#7fba00"
   d="M 37.799999,0 H 72 V 34.200001 H 37.799999 Z"
   class="st2" />

	<path
   id="rect3198"
   style="fill:#00a4ef"
   d="M 0,37.799999 H 34.200001 V 72 H 0 Z"
   class="st3" />

	<path
   id="rect3200"
   style="fill:#ffb900"
   d="M 37.799999,37.799999 H 72 V 72 H 37.799999 Z"
   class="st4" />

</g>
    </g>
  </g>
  <style
     type="text/css"
     id="style3190">
	.st0{fill:#737373;}
	.st1{fill:#F25022;}
	.st2{fill:#7FBA00;}
	.st3{fill:#00A4EF;}
	.st4{fill:#FFB900;}
</style>
</svg>
